<svg xmlns="http://www.w3.org/2000/svg" xmlns:xlink="http://www.w3.org/1999/xlink" width="500" zoomAndPan="magnify" viewBox="0 0 375 374.999991" height="500" preserveAspectRatio="xMidYMid meet" version="1.0"><defs><clipPath id="cc1a67ec15"><path d="M 173 42.113281 L 201 42.113281 L 201 48 L 173 48 Z M 173 42.113281 " clip-rule="nonzero"/></clipPath><clipPath id="90215c6549"><path d="M 200 101 L 227.769531 101 L 227.769531 220 L 200 220 Z M 200 101 " clip-rule="nonzero"/></clipPath><clipPath id="3fa3b97683"><path d="M 147.519531 104 L 174 104 L 174 236 L 147.519531 236 Z M 147.519531 104 " clip-rule="nonzero"/></clipPath><clipPath id="8b918a194e"><path d="M 147.519531 234 L 153 234 L 153 314 L 147.519531 314 Z M 147.519531 234 " clip-rule="nonzero"/></clipPath><clipPath id="571948a17f"><path d="M 221.394531 216.414062 L 227.488281 216.414062 L 227.488281 323.527344 L 221.394531 323.527344 Z M 221.394531 216.414062 " clip-rule="nonzero"/></clipPath></defs><path fill="#1b3c1e" d="M 173.253906 68.808594 C 173.214844 68.859375 173.171875 68.90625 173.121094 68.941406 C 173.121094 68.941406 173.128906 68.9375 173.128906 68.9375 C 170.523438 69.988281 171.675781 71.5625 171.421875 73.789062 C 170.722656 81.105469 170.601562 88.550781 171.585938 95.84375 C 171.9375 97.8125 172.390625 99.777344 172.9375 101.691406 C 174.464844 96.347656 174.820312 90.675781 174.71875 85.136719 C 174.488281 81.644531 174.070312 78.164062 173.496094 74.714844 C 173.296875 73.234375 172.683594 71.824219 172.507812 70.347656 C 172.644531 69.789062 173.136719 69.363281 173.253906 68.808594 " fill-opacity="1" fill-rule="nonzero"/><path fill="#1b3c1e" d="M 174.417969 54.203125 C 174.371094 54.25 174.316406 54.292969 174.257812 54.332031 C 174.261719 54.324219 174.269531 54.320312 174.273438 54.320312 C 170.703125 55.613281 171.96875 59.601562 171.691406 62.496094 C 170.304688 66.351562 172.027344 65.5625 173.386719 68.261719 C 173.914062 67.195312 173.183594 66.210938 173.027344 65.199219 C 173.46875 64.113281 174.257812 63.1875 174.335938 61.96875 C 174.589844 59.234375 172.554688 56.730469 174.417969 54.203125 " fill-opacity="1" fill-rule="nonzero"/><path fill="#1b3c1e" d="M 172.183594 47.464844 C 172.222656 48.5625 172.644531 49.558594 173.410156 50.351562 C 171.6875 51.902344 172.9375 52.410156 173.769531 53.804688 C 173.929688 54.800781 173.984375 54.691406 174.335938 53.8125 C 174.527344 53.191406 174.257812 52.558594 174 52.003906 C 176.855469 49.941406 173.355469 49.0625 172.183594 47.464844 " fill-opacity="1" fill-rule="nonzero"/><g clip-path="url(#cc1a67ec15)"><path fill="#1b3c1e" d="M 184.695312 42.832031 C 182.074219 43.378906 172.550781 43.667969 173.625 47.707031 C 173.703125 47.546875 173.761719 47.363281 173.84375 47.199219 C 173.839844 47.210938 173.832031 47.222656 173.828125 47.238281 C 174.898438 45.570312 178.765625 46.800781 180.589844 46.496094 C 184.421875 46.421875 188.246094 46.046875 192.078125 45.894531 C 194.800781 45.71875 197.585938 45.53125 200.253906 46.234375 C 198.273438 44.558594 195.589844 43.984375 193.101562 43.46875 C 193.203125 43.488281 193.304688 43.507812 193.40625 43.523438 C 190.535156 43.007812 187.617188 42.488281 184.695312 42.832031 " fill-opacity="1" fill-rule="nonzero"/></g><path fill="#1b3c1e" d="M 200.578125 49.4375 C 200.578125 49.453125 200.578125 49.464844 200.578125 49.480469 C 200.578125 49.464844 200.578125 49.453125 200.578125 49.4375 Z M 200.613281 49.292969 C 200.609375 49.300781 200.605469 49.308594 200.605469 49.316406 C 200.605469 49.308594 200.609375 49.300781 200.613281 49.292969 Z M 199.648438 46.0625 C 201.808594 47.390625 199.503906 48.449219 199.703125 49.449219 C 199.851562 50.042969 200.457031 50.386719 200.730469 50.90625 C 200.855469 50.425781 200.585938 49.910156 200.585938 49.414062 C 202.28125 48.605469 201.679688 45.527344 199.648438 46.0625 " fill-opacity="1" fill-rule="nonzero"/><path fill="#1b3c1e" d="M 200.855469 50.308594 C 200.53125 51.148438 199.773438 51.175781 199.230469 51.714844 C 198.796875 52.605469 199.503906 53.589844 200.113281 54.195312 C 200.320312 57.332031 200.628906 56.558594 201.296875 54.082031 C 201.320312 53.296875 200.433594 52.875 200.261719 52.132812 C 200.828125 51.714844 201.027344 50.976562 200.855469 50.308594 " fill-opacity="1" fill-rule="nonzero"/><path fill="#1b3c1e" d="M 200.628906 67.34375 C 200.628906 67.347656 200.628906 67.355469 200.628906 67.359375 C 200.628906 67.355469 200.628906 67.347656 200.628906 67.34375 Z M 201.226562 56.441406 C 201.28125 58.105469 200.453125 59.652344 200.429688 61.320312 C 200.339844 62.550781 200.507812 63.78125 200.484375 65.007812 C 200.09375 65.34375 199.5 65.632812 199.695312 66.253906 C 199.769531 66.597656 200.75 68.046875 200.628906 67.359375 C 200.628906 67.363281 200.628906 67.363281 200.628906 67.367188 C 200.628906 67.359375 200.628906 67.351562 200.628906 67.339844 C 200.628906 67.339844 200.628906 67.339844 200.628906 67.34375 C 200.59375 67.015625 200.5625 66.683594 200.597656 66.351562 C 201.722656 66.332031 202.101562 65.425781 202.136719 64.429688 C 202.371094 61.851562 202.816406 58.648438 201.226562 56.441406 " fill-opacity="1" fill-rule="nonzero"/><path fill="#1b3c1e" d="M 200.597656 66.992188 C 200.605469 67.003906 200.609375 67.007812 200.617188 67.019531 C 200.609375 67.007812 200.605469 67.003906 200.597656 66.992188 Z M 200.417969 66.738281 C 200.578125 66.980469 200.789062 67.207031 200.832031 67.503906 C 200.832031 67.476562 200.828125 67.453125 200.828125 67.425781 C 200.488281 68.878906 199.511719 69.386719 200.902344 70.84375 C 201.050781 71.089844 200.730469 71.320312 200.625 71.527344 C 200.828125 71.480469 201.046875 71.402344 201.230469 71.292969 C 201.890625 70.773438 201.089844 69.984375 201.199219 69.328125 C 201.648438 68.359375 201.839844 66.882812 200.417969 66.738281 " fill-opacity="1" fill-rule="nonzero"/><path fill="#1b3c1e" d="M 180.046875 64.203125 C 177.726562 64.351562 175.503906 65.132812 173.324219 65.863281 C 177.046875 67 181.058594 67.265625 184.925781 66.960938 C 187.785156 66.675781 190.605469 65.988281 193.382812 65.324219 C 188.949219 64.902344 184.519531 63.800781 180.046875 64.203125 " fill-opacity="1" fill-rule="nonzero"/><path fill="#1b3c1e" d="M 181.804688 55.632812 C 178.699219 55.800781 175.59375 56.359375 172.707031 57.503906 C 176.609375 58.636719 180.753906 59.273438 184.78125 58.433594 C 187.414062 57.898438 190.046875 57.234375 192.644531 56.597656 C 189.050781 56.140625 185.441406 55.515625 181.804688 55.632812 " fill-opacity="1" fill-rule="nonzero"/><path fill="#1b3c1e" d="M 178.742188 52.476562 C 177.195312 52.652344 175.660156 52.9375 174.128906 53.238281 C 174.667969 53.519531 175.242188 53.761719 175.8125 53.984375 C 178.925781 55.097656 182.359375 54.761719 185.457031 53.75 C 186.070312 53.550781 186.699219 53.351562 187.300781 53.144531 C 184.460938 52.785156 181.617188 52.128906 178.742188 52.476562 " fill-opacity="1" fill-rule="nonzero"/><path fill="#1b3c1e" d="M 181.984375 47.976562 C 179.257812 48.066406 176.617188 48.820312 174.113281 49.855469 C 176.894531 50.613281 179.820312 50.890625 182.703125 50.855469 C 186.222656 50.765625 189.636719 49.835938 193.042969 49.046875 C 189.382812 48.613281 185.6875 47.894531 181.984375 47.976562 " fill-opacity="1" fill-rule="nonzero"/><path fill="#1b3c1e" d="M 180.375 67.933594 C 177.695312 67.945312 175.066406 68.601562 172.558594 69.503906 C 174.441406 70.128906 176.414062 70.515625 178.402344 70.65625 C 181.800781 70.898438 185.140625 70.03125 188.457031 69.40625 C 185.8125 68.769531 183.125 67.976562 180.375 67.933594 " fill-opacity="1" fill-rule="nonzero"/><path fill="#1b3c1e" d="M 184.46875 99.457031 C 180.992188 99.488281 177.609375 100.207031 174.316406 101.289062 C 176.988281 102.261719 179.894531 102.484375 182.71875 102.59375 C 187.792969 102.546875 192.832031 101.8125 197.859375 101.171875 C 197.84375 101.171875 197.828125 101.175781 197.8125 101.175781 C 201.457031 100.871094 185.757812 99.144531 184.46875 99.457031 " fill-opacity="1" fill-rule="nonzero"/><path fill="#1b3c1e" d="M 200.105469 100.835938 C 200.101562 100.84375 200.101562 100.851562 200.101562 100.859375 C 200.101562 100.851562 200.101562 100.84375 200.105469 100.835938 Z M 201.230469 71.550781 C 199.640625 76.773438 199.644531 82.378906 199.089844 87.785156 C 198.730469 92.140625 198.710938 96.566406 200.121094 100.742188 C 200.121094 100.707031 200.121094 100.671875 200.121094 100.640625 C 200.125 101.015625 199.457031 100.8125 199.191406 100.882812 C 199.382812 101.011719 199.601562 101.140625 199.816406 101.242188 C 201.761719 101.890625 201.007812 97.695312 201.207031 96.605469 C 201.273438 92.863281 201.714844 89.140625 201.632812 85.394531 C 201.316406 80.792969 201.035156 76.160156 201.230469 71.550781 " fill-opacity="1" fill-rule="nonzero"/><g clip-path="url(#90215c6549)"><path fill="#1b3c1e" d="M 200.5625 101.210938 C 199.175781 115.460938 202.09375 126.257812 207.167969 139.386719 C 209.453125 145.316406 210.910156 151.519531 213.089844 157.484375 C 215.746094 164.6875 217.742188 172.078125 219.386719 179.570312 C 220.078125 183.164062 220.800781 186.753906 221.460938 190.355469 C 221.753906 194.183594 222.089844 198.007812 222.609375 201.8125 C 223.367188 205.378906 223.621094 209.046875 224.457031 212.585938 C 225.242188 214.785156 226.183594 216.957031 226.59375 219.261719 C 227.164062 216.320312 226.402344 213.367188 226.59375 210.417969 C 227.351562 205.152344 226.851562 199.796875 226.792969 194.496094 C 226.191406 185.457031 223.882812 176.585938 221.777344 167.800781 C 220.207031 161.578125 217.292969 155.800781 215.5625 149.632812 C 212.914062 139.6875 208.9375 130.179688 205.988281 120.332031 C 204.839844 116.738281 203.71875 113.136719 202.988281 109.429688 C 202.417969 106.636719 201.941406 103.777344 200.84375 101.132812 C 200.773438 100.984375 200.574219 101.070312 200.5625 101.210938 " fill-opacity="1" fill-rule="nonzero"/></g><g clip-path="url(#3fa3b97683)"><path fill="#1b3c1e" d="M 173.511719 104.292969 C 173.496094 104.316406 173.480469 104.34375 173.511719 104.320312 C 172.585938 109.859375 170.5625 115.132812 169.132812 120.550781 C 167.109375 127.789062 165.636719 135.195312 162.691406 142.140625 C 160.175781 149.101562 156.921875 155.78125 154.789062 162.890625 C 152.394531 172.117188 150.65625 181.511719 149.347656 190.953125 C 149.367188 190.832031 149.382812 190.710938 149.402344 190.589844 C 147.710938 200.5625 147.835938 210.707031 147.894531 220.785156 C 147.835938 225.839844 148.894531 230.800781 149.671875 235.769531 C 150.460938 232.964844 150.96875 230.058594 151.21875 227.140625 C 152.425781 217.5625 152.332031 207.921875 152.964844 198.300781 C 154.207031 188.832031 155.683594 179.371094 157.769531 170.042969 C 159.625 159.199219 165.582031 149.78125 169.140625 139.488281 C 171.648438 132.601562 172.796875 125.300781 173.394531 118.015625 C 173.902344 113.488281 174.308594 108.773438 173.511719 104.292969 " fill-opacity="1" fill-rule="nonzero"/></g><path fill="#1b3c1e" d="M 150.316406 306.535156 C 148.542969 316.679688 148.171875 324.964844 159.726562 328.402344 C 165.195312 330.015625 161.722656 328.269531 159.578125 326.09375 C 157.859375 324.515625 155.925781 323.085938 154.667969 321.089844 C 152.503906 316.488281 151.773438 311.363281 150.316406 306.535156 " fill-opacity="1" fill-rule="nonzero"/><g clip-path="url(#8b918a194e)"><path fill="#1b3c1e" d="M 149.8125 234.113281 C 147.523438 247.015625 147.832031 260.125 148.15625 273.171875 C 148.417969 280.402344 147.960938 287.632812 148.15625 294.859375 C 148.480469 301.175781 149.535156 307.4375 150.066406 313.722656 C 152.59375 301.910156 151.660156 289.46875 151.945312 277.433594 C 151.785156 263.019531 153.503906 248.203125 149.8125 234.113281 " fill-opacity="1" fill-rule="nonzero"/></g><g clip-path="url(#571948a17f)"><path fill="#1b3c1e" d="M 224.621094 216.875 C 221.8125 234.386719 223.070312 252.136719 222.921875 269.777344 C 222.84375 281.648438 222.109375 293.5 221.832031 305.363281 C 222.066406 311.328125 222.636719 317.339844 222.09375 323.289062 C 225.015625 317.03125 225.082031 309.96875 225.828125 303.222656 C 226.929688 291.628906 227.027344 279.957031 227.191406 268.320312 C 227.464844 261.3125 227.0625 254.300781 227.3125 247.296875 C 227.765625 237.132812 227.484375 226.691406 224.621094 216.875 " fill-opacity="1" fill-rule="nonzero"/></g><path fill="#1b3c1e" d="M 217.109375 324.808594 C 217.085938 324.8125 217.0625 324.816406 217.039062 324.820312 C 217.0625 324.816406 217.085938 324.8125 217.109375 324.808594 Z M 221.046875 322.796875 C 221.039062 322.808594 221.03125 322.816406 221.023438 322.828125 C 221.03125 322.816406 221.039062 322.808594 221.046875 322.796875 Z M 221.480469 321.59375 C 221.480469 321.597656 221.480469 321.605469 221.480469 321.609375 C 221.480469 321.605469 221.480469 321.597656 221.480469 321.59375 Z M 221.507812 321.101562 C 221.339844 324.96875 216.335938 324.765625 213.515625 325.304688 C 209.953125 325.804688 206.402344 326.398438 202.832031 326.824219 C 190.578125 328.320312 178.179688 329.144531 165.835938 328.472656 C 163.792969 328.257812 161.761719 327.734375 159.808594 327.152344 C 161.953125 328.617188 164.40625 329.695312 166.945312 330.242188 C 174.363281 331.664062 181.949219 332.480469 189.503906 332.132812 C 196.96875 332.09375 204.519531 331.785156 211.660156 329.398438 C 215.292969 328.007812 223.171875 326.40625 221.507812 321.101562 " fill-opacity="1" fill-rule="nonzero"/><path fill="#1b3c1e" d="M 203.390625 314.609375 C 203.378906 314.609375 203.371094 314.609375 203.359375 314.609375 C 203.371094 314.609375 203.378906 314.609375 203.390625 314.609375 Z M 152.554688 309.742188 C 167.246094 319.445312 185.875 317.4375 202.496094 315.488281 C 204.714844 315.222656 206.957031 314.949219 209.148438 314.59375 C 207.25 314.59375 205.351562 314.589844 203.457031 314.609375 C 192.316406 314.550781 181.152344 313.867188 170.171875 311.957031 C 164.332031 311.003906 158.375 310.761719 152.554688 309.742188 " fill-opacity="1" fill-rule="nonzero"/><path fill="#1b3c1e" d="M 155.132812 298.667969 C 169.003906 305.691406 185.105469 303.644531 199.941406 301.621094 C 202.480469 301.332031 205.042969 301.066406 207.570312 300.734375 C 190.074219 300.34375 172.628906 298.535156 155.132812 298.667969 " fill-opacity="1" fill-rule="nonzero"/><path fill="#1b3c1e" d="M 157.4375 210.984375 C 155.570312 211.085938 153.6875 211.339844 151.863281 211.6875 C 157.355469 213.097656 162.816406 214.714844 168.503906 215.109375 C 179.746094 216.097656 191.199219 215.777344 202.164062 212.941406 C 208.4375 211.503906 208.753906 211.402344 202.0625 212.089844 C 187.183594 213.726562 172.355469 209.742188 157.4375 210.984375 " fill-opacity="1" fill-rule="nonzero"/></svg>